<svg height="512" viewBox="0 0 20.78 22.399" width="512" xmlns="http://www.w3.org/2000/svg"><g id="Layer_2" data-name="Layer 2"><g id="Layer_1-2" data-name="Layer 1"><g id="flower"><path d="m13.182 17.61c-1.1-3.67 4.252-5.512 7.6-3.945-2.558 1.402-3.145 6.42-7.6 3.945z" fill="#79ccb8"/><path d="m8.432 18.759c1.122-4.942-6.706-6.4-8.432-4.694 3.044 1.99 3.325 6.627 8.432 4.694z" fill="#79ccb8"/><path d="m18.776 14.151a.342.342 0 0 0 -.44-.207 14.3 14.3 0 0 0 -7.336 5.871 23.819 23.819 0 0 0 -1.777-13.482.345.345 0 0 0 -.621.3 23.536 23.536 0 0 1 1.509 14.281 12.443 12.443 0 0 0 -8.1-6.8.345.345 0 0 0 -.188.664 11.718 11.718 0 0 1 8.053 7.385.347.347 0 0 0 .016.041.339.339 0 0 0 .034.053l.01.015a.23.23 0 0 0 .032.037c.011.01.023.018.035.028s.04.024.06.039.014 0 .021 0a.246.246 0 0 0 .116.023.145.145 0 0 0 .03 0 .6.6 0 0 0 .074-.011h.006.011c.013-.006.022-.014.033-.02a.4.4 0 0 0 .041-.023.11.11 0 0 0 .018-.014.262.262 0 0 0 .043-.039.1.1 0 0 0 .015-.02.119.119 0 0 0 .016-.023.242.242 0 0 0 .035-.063 13.669 13.669 0 0 1 8.047-7.586.343.343 0 0 0 .207-.449z" fill="#3daa9d"/><path d="m13.111 6.567a.568.568 0 0 0 -.2 1.041c1.1.682 1.975 1.723.721 3.051-1 1.066-2.013.441-2.767-.44a.576.576 0 0 0 -1.021.331c-.065 1.322-.553 2.65-2.351 2.279-1.419-.293-1.348-1.494-.923-2.625a.577.577 0 0 0 -.821-.7c-1.11.568-2.365.732-2.906-.918-.475-1.45.708-2.032 1.935-2.256a.578.578 0 0 0 .21-1.05c-1.049-.68-1.871-1.723-.622-3.047 1-1.066 2.013-.439 2.765.443a.575.575 0 0 0 1.021-.33c.067-1.324.555-2.654 2.353-2.283 1.417.291 1.323 1.522.874 2.68a.578.578 0 0 0 .825.7c1.134-.6 2.411-.789 2.952.859.477 1.458-.766 2.04-2.045 2.265z" fill="#f87670"/><path d="m10.42 6.116a1.553 1.553 0 0 1 -3.02.719 1.553 1.553 0 0 1 3.02-.719z" fill="#fddc85"/></g></g></g></svg>